<mxfile host="app.diagrams.net" agent="Mozilla/5.0 (Windows NT 10.0; Win64; x64) AppleWebKit/537.36 (KHTML, like Gecko) Chrome/133.0.0.0 Safari/537.36 Edg/133.0.0.0" version="26.0.13">
  <diagram name="Page-1" id="hmsFM0hN7dfMMpRHbVr-">
    <mxGraphModel dx="1098" dy="531" grid="1" gridSize="10" guides="1" tooltips="1" connect="1" arrows="1" fold="1" page="1" pageScale="1" pageWidth="827" pageHeight="1169" math="0" shadow="0">
      <root>
        <mxCell id="0" />
        <mxCell id="1" parent="0" />
        <mxCell id="eLKAMmu3wPJDEvCilNL0-7" style="edgeStyle=orthogonalEdgeStyle;rounded=0;orthogonalLoop=1;jettySize=auto;html=1;strokeColor=#FF8000;" parent="1" source="_ICgYgzvTzafuJ7pVZ1F-6" edge="1">
          <mxGeometry relative="1" as="geometry">
            <mxPoint x="350" y="655" as="targetPoint" />
            <Array as="points">
              <mxPoint x="339" y="655" />
              <mxPoint x="339" y="655" />
            </Array>
          </mxGeometry>
        </mxCell>
        <mxCell id="_ICgYgzvTzafuJ7pVZ1F-2" value="&lt;b&gt;&lt;font style=&quot;font-size: 18px;&quot;&gt;Hardware&lt;/font&gt;&lt;/b&gt;" style="rounded=0;whiteSpace=wrap;html=1;fillColor=#FF8000;strokeColor=#FFCC99;" parent="1" vertex="1">
          <mxGeometry x="140" y="690" width="280" height="40" as="geometry" />
        </mxCell>
        <mxCell id="_ICgYgzvTzafuJ7pVZ1F-22" style="edgeStyle=orthogonalEdgeStyle;rounded=0;orthogonalLoop=1;jettySize=auto;html=1;strokeColor=#FF8000;" parent="1" edge="1">
          <mxGeometry relative="1" as="geometry">
            <mxPoint x="280" y="690" as="targetPoint" />
            <Array as="points">
              <mxPoint x="280" y="690" />
            </Array>
            <mxPoint x="280" y="670" as="sourcePoint" />
          </mxGeometry>
        </mxCell>
        <mxCell id="MAhO668D2TdjjS8TNr_--6" style="edgeStyle=orthogonalEdgeStyle;rounded=0;orthogonalLoop=1;jettySize=auto;html=1;strokeColor=#FF8000;" parent="1" source="_ICgYgzvTzafuJ7pVZ1F-9" edge="1">
          <mxGeometry relative="1" as="geometry">
            <mxPoint x="280" y="581" as="targetPoint" />
          </mxGeometry>
        </mxCell>
        <mxCell id="MAhO668D2TdjjS8TNr_--10" style="edgeStyle=orthogonalEdgeStyle;rounded=0;orthogonalLoop=1;jettySize=auto;html=1;strokeColor=#FF8000;entryX=0.5;entryY=0;entryDx=0;entryDy=0;" parent="1" source="_ICgYgzvTzafuJ7pVZ1F-9" target="_ICgYgzvTzafuJ7pVZ1F-5" edge="1">
          <mxGeometry relative="1" as="geometry">
            <mxPoint x="385" y="630" as="targetPoint" />
            <Array as="points">
              <mxPoint x="339" y="560" />
              <mxPoint x="339" y="560" />
            </Array>
          </mxGeometry>
        </mxCell>
        <mxCell id="_ICgYgzvTzafuJ7pVZ1F-9" value="&lt;b&gt;&lt;font style=&quot;font-size: 18px;&quot;&gt;Application&lt;/font&gt;&lt;/b&gt;" style="rounded=0;whiteSpace=wrap;html=1;fillColor=#FF8000;strokeColor=#FFCC99;" parent="1" vertex="1">
          <mxGeometry x="140" y="520" width="280" height="40" as="geometry" />
        </mxCell>
        <mxCell id="MAhO668D2TdjjS8TNr_--11" style="edgeStyle=orthogonalEdgeStyle;rounded=0;orthogonalLoop=1;jettySize=auto;html=1;endArrow=none;endFill=0;strokeColor=#FF8000;" parent="1" source="_ICgYgzvTzafuJ7pVZ1F-10" edge="1">
          <mxGeometry relative="1" as="geometry">
            <mxPoint x="383" y="595" as="targetPoint" />
            <Array as="points">
              <mxPoint x="385" y="595" />
              <mxPoint x="385" y="595" />
            </Array>
          </mxGeometry>
        </mxCell>
        <mxCell id="eLKAMmu3wPJDEvCilNL0-2" style="edgeStyle=orthogonalEdgeStyle;rounded=0;orthogonalLoop=1;jettySize=auto;html=1;entryX=0.5;entryY=0;entryDx=0;entryDy=0;fillColor=#FF8000;strokeColor=#FF8000;" parent="1" source="_ICgYgzvTzafuJ7pVZ1F-10" target="_ICgYgzvTzafuJ7pVZ1F-6" edge="1">
          <mxGeometry relative="1" as="geometry" />
        </mxCell>
        <mxCell id="_ICgYgzvTzafuJ7pVZ1F-10" value="&lt;b&gt;&lt;font style=&quot;font-size: 13px;&quot;&gt;Modules&lt;br&gt;&lt;/font&gt;&lt;/b&gt;" style="rounded=0;whiteSpace=wrap;html=1;fillColor=#FF8000;strokeColor=#FFCC99;" parent="1" vertex="1">
          <mxGeometry x="230" y="580" width="100" height="30" as="geometry" />
        </mxCell>
        <mxCell id="_ICgYgzvTzafuJ7pVZ1F-6" value="&lt;b&gt;&lt;font style=&quot;font-size: 13px;&quot;&gt;Drivers&lt;/font&gt;&lt;/b&gt;" style="rounded=0;whiteSpace=wrap;html=1;fillColor=#FF8000;strokeColor=#FFCC99;" parent="1" vertex="1">
          <mxGeometry x="230" y="640" width="100" height="30" as="geometry" />
        </mxCell>
        <mxCell id="_ICgYgzvTzafuJ7pVZ1F-5" value="&lt;b&gt;&lt;font style=&quot;font-size: 13px;&quot;&gt;Libraries&lt;/font&gt;&lt;/b&gt;" style="rounded=0;whiteSpace=wrap;html=1;fillColor=#FF8000;strokeColor=#FFCC99;" parent="1" vertex="1">
          <mxGeometry x="350" y="640" width="70" height="30" as="geometry" />
        </mxCell>
      </root>
    </mxGraphModel>
  </diagram>
</mxfile>
